<svg width="70" height="70" viewBox="0 0 70 70" fill="none" xmlns="http://www.w3.org/2000/svg">
    <rect width="70" height="70" rx="20" fill="#D2998B" fill-opacity="0.7"/>
    <rect x="0.5" y="0.5" width="69" height="69" rx="19.5" stroke="black" stroke-opacity="0.8"/>
    <path d="M31.125 34.042H28.2083V36.9587H31.125V34.042ZM36.9583 34.042H34.0417V36.9587H36.9583V34.042ZM42.7917 34.042H39.875V36.9587H42.7917V34.042ZM45.7083 23.8337H44.25V20.917H41.3333V23.8337H29.6667V20.917H26.75V23.8337H25.2917C23.6729 23.8337 22.3896 25.1462 22.3896 26.7503L22.375 47.167C22.375 48.7712 23.6729 50.0837 25.2917 50.0837H45.7083C47.3125 50.0837 48.625 48.7712 48.625 47.167V26.7503C48.625 25.1462 47.3125 23.8337 45.7083 23.8337ZM45.7083 47.167H25.2917V31.1253H45.7083V47.167Z" fill="black"/>
</svg>
