<svg width="46" height="46" viewBox="0 0 46 46" fill="none" xmlns="http://www.w3.org/2000/svg">
<circle cx="23" cy="23" r="22.5" fill="#A46E61" fill-opacity="0.8" stroke="black"/>
<g clip-path="url(#clip0_211_2)">
<path d="M24 23H31V24.5H24V23ZM24 20.5H31V22H24V20.5ZM24 25.5H31V27H24V25.5ZM32 15H14C12.9 15 12 15.9 12 17V30C12 31.1 12.9 32 14 32H32C33.1 32 34 31.1 34 30V17C34 15.9 33.1 15 32 15ZM32 30H23V17H32V30Z" fill="black"/>
</g>
<defs>
<clipPath id="clip0_211_2">
<rect width="24" height="24" fill="white" transform="translate(11 11)"/>
</clipPath>
</defs>
</svg>
