<svg width="46" height="46" viewBox="0 0 46 46" fill="none" xmlns="http://www.w3.org/2000/svg">
<circle cx="23" cy="23" r="22.5" fill="#E4C863" stroke="black"/>
<path d="M24.1258 24.5588L25.5558 23.1288L31.9958 29.5718L30.5688 30.9988L24.1258 24.5588ZM28.4188 18.8288L31.2788 15.9688C27.3288 12.0188 20.9288 12.0088 16.9788 15.9488C20.9088 14.6488 25.2888 15.6988 28.4188 18.8288ZM16.9488 15.9788C13.0088 19.9288 13.0188 26.3288 16.9688 30.2788L19.8288 27.4188C16.6988 24.2888 15.6488 19.9088 16.9488 15.9788ZM16.9688 15.9588L16.9588 15.9688C16.5788 18.9788 18.1288 22.8488 21.2588 25.9888L26.9888 20.2588C23.8588 17.1288 19.9788 15.5788 16.9688 15.9588Z" fill="black"/>
</svg>
