<svg width="423" height="275" viewBox="0 0 423 275" fill="none" xmlns="http://www.w3.org/2000/svg">
<circle opacity="0.5" cx="211.5" cy="100.5" r="100" fill="#5F5449" stroke="black"/>
<rect x="207" y="29" width="11" height="146" rx="5.5" fill="#C4C4C4"/>
<rect x="171" y="29" width="11" height="146" rx="5.5" fill="#C4C4C4"/>
<rect x="238" y="29" width="11" height="146" rx="5.5" fill="#C4C4C4"/>
<path d="M186.5 108.5C186.5 114.046 182.224 118.5 177 118.5C171.776 118.5 167.5 114.046 167.5 108.5C167.5 102.954 171.776 98.5 177 98.5C182.224 98.5 186.5 102.954 186.5 108.5Z" fill="#C4C4C4" stroke="#716457"/>
<circle cx="210" cy="133" r="9.5" fill="#C4C4C4" stroke="#716457"/>
<path d="M253.5 83.5C253.5 88.4467 249.271 92.5 244 92.5C238.729 92.5 234.5 88.4467 234.5 83.5C234.5 78.5533 238.729 74.5 244 74.5C249.271 74.5 253.5 78.5533 253.5 83.5Z" fill="#C4C4C4" stroke="#716457"/>
<path d="M25.8488 232V237.28H15.2288C11.1888 237.28 9.16875 238.92 9.16875 242.2C9.16875 243.96 10.0488 245.46 11.8088 246.7C13.6088 247.9 16.0288 249.06 19.0688 250.18C20.4288 250.7 21.5888 251.24 22.5488 251.8C23.5088 252.32 24.4688 253.02 25.4288 253.9C26.3888 254.78 27.1088 255.92 27.5888 257.32C28.0688 258.68 28.3088 260.26 28.3088 262.06C28.3088 264.06 27.8888 265.86 27.0488 267.46C26.2088 269.02 25.1288 270.26 23.8088 271.18C22.4888 272.06 21.1288 272.74 19.7288 273.22C18.3688 273.66 17.0288 273.9 15.7088 273.94C15.1488 273.98 14.3488 274 13.3088 274H3.94875V268.72H13.1288C15.8488 268.72 18.0688 268.16 19.7888 267.04C21.5088 265.88 22.3688 264.2 22.3688 262C22.3688 260.92 22.1288 259.98 21.6488 259.18C21.1688 258.34 20.4688 257.62 19.5488 257.02C18.6688 256.42 17.7488 255.9 16.7888 255.46C15.8688 255.02 14.7488 254.56 13.4288 254.08C13.0688 253.96 12.7888 253.86 12.5888 253.78C6.30875 251.38 3.16875 247.46 3.16875 242.02C3.16875 238.66 4.24875 236.16 6.40875 234.52C8.56875 232.84 11.3888 232 14.8688 232H25.8488ZM52.3031 250.24L63.0431 239.5V245.2H71.1431V250.24H63.0431V262.6C63.0431 264 63.2631 265.16 63.7031 266.08C64.1831 267 64.8631 267.66 65.7431 268.06C66.6231 268.42 67.4431 268.66 68.2031 268.78C69.0031 268.9 69.9831 268.96 71.1431 268.96V274C66.5431 274 63.1431 273.12 60.9431 271.36C58.7431 269.6 57.6431 266.68 57.6431 262.6V250.24H52.3031ZM113.886 257.08V262.48C112.366 261.32 110.506 260.74 108.306 260.74C106.426 260.74 104.966 261.12 103.926 261.88C102.886 262.6 102.366 263.64 102.366 265C102.366 267.64 104.326 268.96 108.246 268.96H116.166V257.5C116.166 252.66 113.806 250.24 109.086 250.24H99.4856V245.2H109.386C113.266 245.2 116.246 246.16 118.326 248.08C120.406 250 121.446 252.76 121.446 256.36V274H108.066C104.666 274 101.966 273.24 99.9656 271.72C97.9656 270.2 96.9656 267.98 96.9656 265.06C96.9656 262.14 98.0256 259.92 100.146 258.4C102.266 256.88 104.926 256.12 108.126 256.12C109.926 256.12 111.846 256.44 113.886 257.08ZM163.201 250.24H156.301V274H150.901V250.24H146.821L149.221 245.2H150.901C150.901 241.12 152.281 237.9 155.041 235.54C157.801 233.14 161.321 231.94 165.601 231.94V236.98C159.401 236.98 156.301 239.72 156.301 245.2H163.201V250.24ZM203.186 250.24H196.286V274H190.886V250.24H186.806L189.206 245.2H190.886C190.886 241.12 192.266 237.9 195.026 235.54C197.786 233.14 201.306 231.94 205.586 231.94V236.98C199.386 236.98 196.286 239.72 196.286 245.2H203.186V250.24ZM229.01 232H234.41V259.6C234.41 262.76 235.21 265.22 236.81 266.98C238.45 268.7 240.69 269.56 243.53 269.56C246.49 269.56 248.81 268.72 250.49 267.04C252.17 265.32 253.01 262.84 253.01 259.6C253.01 256.52 252.09 254.1 250.25 252.34C248.45 250.54 246.07 249.64 243.11 249.64C240.59 249.64 238.41 250.36 236.57 251.8V246.4C238.77 245.2 241.15 244.6 243.71 244.6C247.95 244.6 251.45 245.98 254.21 248.74C257.01 251.46 258.41 255.08 258.41 259.6C258.41 264.36 256.95 268.06 254.03 270.7C251.15 273.3 247.51 274.6 243.11 274.6C238.91 274.6 235.51 273.24 232.91 270.52C230.31 267.8 229.01 264.16 229.01 259.6V232ZM288.994 248.98C291.794 246.06 295.294 244.6 299.494 244.6C301.534 244.6 303.434 245 305.194 245.8C306.994 246.56 308.554 247.62 309.874 248.98C311.234 250.34 312.294 251.94 313.054 253.78C313.814 255.58 314.194 257.52 314.194 259.6C314.194 261.68 313.814 263.64 313.054 265.48C312.334 267.28 311.314 268.86 309.994 270.22C308.674 271.58 307.114 272.66 305.314 273.46C303.514 274.22 301.574 274.6 299.494 274.6C297.374 274.6 295.414 274.22 293.614 273.46C291.854 272.66 290.314 271.58 288.994 270.22C287.674 268.86 286.634 267.28 285.874 265.48C285.154 263.64 284.794 261.68 284.794 259.6C284.794 255.36 286.194 251.82 288.994 248.98ZM299.494 249.64C296.694 249.64 294.434 250.56 292.714 252.4C291.034 254.24 290.194 256.64 290.194 259.6C290.194 262.56 291.034 264.96 292.714 266.8C294.434 268.64 296.694 269.56 299.494 269.56C302.334 269.56 304.594 268.64 306.274 266.8C307.954 264.92 308.794 262.52 308.794 259.6C308.794 256.68 307.954 254.3 306.274 252.46C304.594 250.58 302.334 249.64 299.494 249.64ZM344.798 248.98C347.598 246.06 351.098 244.6 355.298 244.6C357.338 244.6 359.238 245 360.998 245.8C362.798 246.56 364.358 247.62 365.678 248.98C367.038 250.34 368.098 251.94 368.858 253.78C369.618 255.58 369.998 257.52 369.998 259.6C369.998 261.68 369.618 263.64 368.858 265.48C368.138 267.28 367.118 268.86 365.798 270.22C364.478 271.58 362.918 272.66 361.118 273.46C359.318 274.22 357.378 274.6 355.298 274.6C353.178 274.6 351.218 274.22 349.418 273.46C347.658 272.66 346.118 271.58 344.798 270.22C343.478 268.86 342.438 267.28 341.678 265.48C340.958 263.64 340.598 261.68 340.598 259.6C340.598 255.36 341.998 251.82 344.798 248.98ZM355.298 249.64C352.498 249.64 350.238 250.56 348.518 252.4C346.838 254.24 345.998 256.64 345.998 259.6C345.998 262.56 346.838 264.96 348.518 266.8C350.238 268.64 352.498 269.56 355.298 269.56C358.138 269.56 360.398 268.64 362.078 266.8C363.758 264.92 364.598 262.52 364.598 259.6C364.598 256.68 363.758 254.3 362.078 252.46C360.398 250.58 358.138 249.64 355.298 249.64ZM413.863 245.2H419.683L412.423 257.74C417.343 259.06 419.803 263.04 419.803 269.68V274H414.523V269.62C414.523 266.94 413.723 264.88 412.123 263.44C410.563 261.96 408.323 261.22 405.403 261.22C404.483 261.22 403.543 261.28 402.583 261.4V274H397.303V232H402.583V256.66C404.263 256.42 405.943 256.42 407.623 256.66L413.863 245.2Z" fill="white"/>
</svg>
