<svg width="183" height="50" viewBox="0 0 183 50" fill="none" xmlns="http://www.w3.org/2000/svg">
<circle cx="25" cy="25" r="24.5" fill="#211911" fill-opacity="0.9" stroke="black"/>
<rect x="24" y="7" width="3" height="36" rx="1.5" fill="#C4C4C4"/>
<rect x="15" y="7" width="2" height="36" rx="1" fill="#C4C4C4"/>
<rect x="32" y="7" width="2" height="36" rx="1" fill="#C4C4C4"/>
<circle cx="16" cy="27" r="2.5" fill="#C4C4C4" stroke="#716457"/>
<circle cx="24.5" cy="33.5" r="2" fill="#C4C4C4" stroke="#716457"/>
<circle cx="32.5" cy="20.5" r="2" fill="#C4C4C4" stroke="#716457"/>
<path d="M70.0872 23.5V24.82H67.4322C66.4222 24.82 65.9172 25.23 65.9172 26.05C65.9172 26.49 66.1372 26.865 66.5772 27.175C67.0272 27.475 67.6322 27.765 68.3922 28.045C68.7322 28.175 69.0222 28.31 69.2622 28.45C69.5022 28.58 69.7422 28.755 69.9822 28.975C70.2222 29.195 70.4022 29.48 70.5222 29.83C70.6422 30.17 70.7022 30.565 70.7022 31.015C70.7022 31.515 70.5972 31.965 70.3872 32.365C70.1772 32.755 69.9072 33.065 69.5772 33.295C69.2472 33.515 68.9072 33.685 68.5572 33.805C68.2172 33.915 67.8822 33.975 67.5522 33.985C67.4122 33.995 67.2122 34 66.9522 34H64.6122V32.68H66.9072C67.5872 32.68 68.1422 32.54 68.5722 32.26C69.0022 31.97 69.2172 31.55 69.2172 31C69.2172 30.73 69.1572 30.495 69.0372 30.295C68.9172 30.085 68.7422 29.905 68.5122 29.755C68.2922 29.605 68.0622 29.475 67.8222 29.365C67.5922 29.255 67.3122 29.14 66.9822 29.02C66.8922 28.99 66.8222 28.965 66.7722 28.945C65.2022 28.345 64.4172 27.365 64.4172 26.005C64.4172 25.165 64.6872 24.54 65.2272 24.13C65.7672 23.71 66.4722 23.5 67.3422 23.5H70.0872ZM76.7008 28.06L79.3858 25.375V26.8H81.4108V28.06H79.3858V31.15C79.3858 31.5 79.4408 31.79 79.5508 32.02C79.6708 32.25 79.8408 32.415 80.0608 32.515C80.2808 32.605 80.4858 32.665 80.6758 32.695C80.8758 32.725 81.1208 32.74 81.4108 32.74V34C80.2608 34 79.4108 33.78 78.8608 33.34C78.3108 32.9 78.0358 32.17 78.0358 31.15V28.06H76.7008ZM92.0964 29.77V31.12C91.7164 30.83 91.2514 30.685 90.7014 30.685C90.2314 30.685 89.8664 30.78 89.6064 30.97C89.3464 31.15 89.2164 31.41 89.2164 31.75C89.2164 32.41 89.7064 32.74 90.6864 32.74H92.6664V29.875C92.6664 28.665 92.0764 28.06 90.8964 28.06H88.4964V26.8H90.9714C91.9414 26.8 92.6864 27.04 93.2064 27.52C93.7264 28 93.9864 28.69 93.9864 29.59V34H90.6414C89.7914 34 89.1164 33.81 88.6164 33.43C88.1164 33.05 87.8664 32.495 87.8664 31.765C87.8664 31.035 88.1314 30.48 88.6614 30.1C89.1914 29.72 89.8564 29.53 90.6564 29.53C91.1064 29.53 91.5864 29.61 92.0964 29.77ZM104.425 28.06H102.7V34H101.35V28.06H100.33L100.93 26.8H101.35C101.35 25.78 101.695 24.975 102.385 24.385C103.075 23.785 103.955 23.485 105.025 23.485V24.745C103.475 24.745 102.7 25.43 102.7 26.8H104.425V28.06ZM114.421 28.06H112.696V34H111.346V28.06H110.326L110.926 26.8H111.346C111.346 25.78 111.691 24.975 112.381 24.385C113.071 23.785 113.951 23.485 115.021 23.485V24.745C113.471 24.745 112.696 25.43 112.696 26.8H114.421V28.06ZM120.878 23.5H122.228V30.4C122.228 31.19 122.428 31.805 122.828 32.245C123.238 32.675 123.798 32.89 124.508 32.89C125.248 32.89 125.828 32.68 126.248 32.26C126.668 31.83 126.878 31.21 126.878 30.4C126.878 29.63 126.648 29.025 126.188 28.585C125.738 28.135 125.143 27.91 124.403 27.91C123.773 27.91 123.228 28.09 122.768 28.45V27.1C123.318 26.8 123.913 26.65 124.553 26.65C125.613 26.65 126.488 26.995 127.178 27.685C127.878 28.365 128.228 29.27 128.228 30.4C128.228 31.59 127.863 32.515 127.133 33.175C126.413 33.825 125.503 34.15 124.403 34.15C123.353 34.15 122.503 33.81 121.853 33.13C121.203 32.45 120.878 31.54 120.878 30.4V23.5ZM135.873 27.745C136.573 27.015 137.448 26.65 138.498 26.65C139.008 26.65 139.483 26.75 139.923 26.95C140.373 27.14 140.763 27.405 141.093 27.745C141.433 28.085 141.698 28.485 141.888 28.945C142.078 29.395 142.173 29.88 142.173 30.4C142.173 30.92 142.078 31.41 141.888 31.87C141.708 32.32 141.453 32.715 141.123 33.055C140.793 33.395 140.403 33.665 139.953 33.865C139.503 34.055 139.018 34.15 138.498 34.15C137.968 34.15 137.478 34.055 137.028 33.865C136.588 33.665 136.203 33.395 135.873 33.055C135.543 32.715 135.283 32.32 135.093 31.87C134.913 31.41 134.823 30.92 134.823 30.4C134.823 29.34 135.173 28.455 135.873 27.745ZM138.498 27.91C137.798 27.91 137.233 28.14 136.803 28.6C136.383 29.06 136.173 29.66 136.173 30.4C136.173 31.14 136.383 31.74 136.803 32.2C137.233 32.66 137.798 32.89 138.498 32.89C139.208 32.89 139.773 32.66 140.193 32.2C140.613 31.73 140.823 31.13 140.823 30.4C140.823 29.67 140.613 29.075 140.193 28.615C139.773 28.145 139.208 27.91 138.498 27.91ZM149.825 27.745C150.525 27.015 151.4 26.65 152.45 26.65C152.96 26.65 153.435 26.75 153.875 26.95C154.325 27.14 154.715 27.405 155.045 27.745C155.385 28.085 155.65 28.485 155.84 28.945C156.03 29.395 156.125 29.88 156.125 30.4C156.125 30.92 156.03 31.41 155.84 31.87C155.66 32.32 155.405 32.715 155.075 33.055C154.745 33.395 154.355 33.665 153.905 33.865C153.455 34.055 152.97 34.15 152.45 34.15C151.92 34.15 151.43 34.055 150.98 33.865C150.54 33.665 150.155 33.395 149.825 33.055C149.495 32.715 149.235 32.32 149.045 31.87C148.865 31.41 148.775 30.92 148.775 30.4C148.775 29.34 149.125 28.455 149.825 27.745ZM152.45 27.91C151.75 27.91 151.185 28.14 150.755 28.6C150.335 29.06 150.125 29.66 150.125 30.4C150.125 31.14 150.335 31.74 150.755 32.2C151.185 32.66 151.75 32.89 152.45 32.89C153.16 32.89 153.725 32.66 154.145 32.2C154.565 31.73 154.775 31.13 154.775 30.4C154.775 29.67 154.565 29.075 154.145 28.615C153.725 28.145 153.16 27.91 152.45 27.91ZM167.091 26.8H168.546L166.731 29.935C167.961 30.265 168.576 31.26 168.576 32.92V34H167.256V32.905C167.256 32.235 167.056 31.72 166.656 31.36C166.266 30.99 165.706 30.805 164.976 30.805C164.746 30.805 164.511 30.82 164.271 30.85V34H162.951V23.5H164.271V29.665C164.691 29.605 165.111 29.605 165.531 29.665L167.091 26.8Z" fill="black"/>
<circle cx="25" cy="25" r="24.5" fill="#211911" fill-opacity="0.9" stroke="black"/>
<rect x="24" y="7" width="3" height="36" rx="1.5" fill="#C4C4C4"/>
<rect x="15" y="7" width="2" height="36" rx="1" fill="#C4C4C4"/>
<rect x="32" y="7" width="2" height="36" rx="1" fill="#C4C4C4"/>
<circle cx="16" cy="27" r="2.5" fill="#C4C4C4" stroke="#716457"/>
<circle cx="24.5" cy="33.5" r="2" fill="#C4C4C4" stroke="#716457"/>
<circle cx="32.5" cy="20.5" r="2" fill="#C4C4C4" stroke="#716457"/>
<path d="M70.0872 23.5V24.82H67.4322C66.4222 24.82 65.9172 25.23 65.9172 26.05C65.9172 26.49 66.1372 26.865 66.5772 27.175C67.0272 27.475 67.6322 27.765 68.3922 28.045C68.7322 28.175 69.0222 28.31 69.2622 28.45C69.5022 28.58 69.7422 28.755 69.9822 28.975C70.2222 29.195 70.4022 29.48 70.5222 29.83C70.6422 30.17 70.7022 30.565 70.7022 31.015C70.7022 31.515 70.5972 31.965 70.3872 32.365C70.1772 32.755 69.9072 33.065 69.5772 33.295C69.2472 33.515 68.9072 33.685 68.5572 33.805C68.2172 33.915 67.8822 33.975 67.5522 33.985C67.4122 33.995 67.2122 34 66.9522 34H64.6122V32.68H66.9072C67.5872 32.68 68.1422 32.54 68.5722 32.26C69.0022 31.97 69.2172 31.55 69.2172 31C69.2172 30.73 69.1572 30.495 69.0372 30.295C68.9172 30.085 68.7422 29.905 68.5122 29.755C68.2922 29.605 68.0622 29.475 67.8222 29.365C67.5922 29.255 67.3122 29.14 66.9822 29.02C66.8922 28.99 66.8222 28.965 66.7722 28.945C65.2022 28.345 64.4172 27.365 64.4172 26.005C64.4172 25.165 64.6872 24.54 65.2272 24.13C65.7672 23.71 66.4722 23.5 67.3422 23.5H70.0872ZM76.7008 28.06L79.3858 25.375V26.8H81.4108V28.06H79.3858V31.15C79.3858 31.5 79.4408 31.79 79.5508 32.02C79.6708 32.25 79.8408 32.415 80.0608 32.515C80.2808 32.605 80.4858 32.665 80.6758 32.695C80.8758 32.725 81.1208 32.74 81.4108 32.74V34C80.2608 34 79.4108 33.78 78.8608 33.34C78.3108 32.9 78.0358 32.17 78.0358 31.15V28.06H76.7008ZM92.0964 29.77V31.12C91.7164 30.83 91.2514 30.685 90.7014 30.685C90.2314 30.685 89.8664 30.78 89.6064 30.97C89.3464 31.15 89.2164 31.41 89.2164 31.75C89.2164 32.41 89.7064 32.74 90.6864 32.74H92.6664V29.875C92.6664 28.665 92.0764 28.06 90.8964 28.06H88.4964V26.8H90.9714C91.9414 26.8 92.6864 27.04 93.2064 27.52C93.7264 28 93.9864 28.69 93.9864 29.59V34H90.6414C89.7914 34 89.1164 33.81 88.6164 33.43C88.1164 33.05 87.8664 32.495 87.8664 31.765C87.8664 31.035 88.1314 30.48 88.6614 30.1C89.1914 29.72 89.8564 29.53 90.6564 29.53C91.1064 29.53 91.5864 29.61 92.0964 29.77ZM104.425 28.06H102.7V34H101.35V28.06H100.33L100.93 26.8H101.35C101.35 25.78 101.695 24.975 102.385 24.385C103.075 23.785 103.955 23.485 105.025 23.485V24.745C103.475 24.745 102.7 25.43 102.7 26.8H104.425V28.06ZM114.421 28.06H112.696V34H111.346V28.06H110.326L110.926 26.8H111.346C111.346 25.78 111.691 24.975 112.381 24.385C113.071 23.785 113.951 23.485 115.021 23.485V24.745C113.471 24.745 112.696 25.43 112.696 26.8H114.421V28.06ZM120.878 23.5H122.228V30.4C122.228 31.19 122.428 31.805 122.828 32.245C123.238 32.675 123.798 32.89 124.508 32.89C125.248 32.89 125.828 32.68 126.248 32.26C126.668 31.83 126.878 31.21 126.878 30.4C126.878 29.63 126.648 29.025 126.188 28.585C125.738 28.135 125.143 27.91 124.403 27.91C123.773 27.91 123.228 28.09 122.768 28.45V27.1C123.318 26.8 123.913 26.65 124.553 26.65C125.613 26.65 126.488 26.995 127.178 27.685C127.878 28.365 128.228 29.27 128.228 30.4C128.228 31.59 127.863 32.515 127.133 33.175C126.413 33.825 125.503 34.15 124.403 34.15C123.353 34.15 122.503 33.81 121.853 33.13C121.203 32.45 120.878 31.54 120.878 30.4V23.5ZM135.873 27.745C136.573 27.015 137.448 26.65 138.498 26.65C139.008 26.65 139.483 26.75 139.923 26.95C140.373 27.14 140.763 27.405 141.093 27.745C141.433 28.085 141.698 28.485 141.888 28.945C142.078 29.395 142.173 29.88 142.173 30.4C142.173 30.92 142.078 31.41 141.888 31.87C141.708 32.32 141.453 32.715 141.123 33.055C140.793 33.395 140.403 33.665 139.953 33.865C139.503 34.055 139.018 34.15 138.498 34.15C137.968 34.15 137.478 34.055 137.028 33.865C136.588 33.665 136.203 33.395 135.873 33.055C135.543 32.715 135.283 32.32 135.093 31.87C134.913 31.41 134.823 30.92 134.823 30.4C134.823 29.34 135.173 28.455 135.873 27.745ZM138.498 27.91C137.798 27.91 137.233 28.14 136.803 28.6C136.383 29.06 136.173 29.66 136.173 30.4C136.173 31.14 136.383 31.74 136.803 32.2C137.233 32.66 137.798 32.89 138.498 32.89C139.208 32.89 139.773 32.66 140.193 32.2C140.613 31.73 140.823 31.13 140.823 30.4C140.823 29.67 140.613 29.075 140.193 28.615C139.773 28.145 139.208 27.91 138.498 27.91ZM149.825 27.745C150.525 27.015 151.4 26.65 152.45 26.65C152.96 26.65 153.435 26.75 153.875 26.95C154.325 27.14 154.715 27.405 155.045 27.745C155.385 28.085 155.65 28.485 155.84 28.945C156.03 29.395 156.125 29.88 156.125 30.4C156.125 30.92 156.03 31.41 155.84 31.87C155.66 32.32 155.405 32.715 155.075 33.055C154.745 33.395 154.355 33.665 153.905 33.865C153.455 34.055 152.97 34.15 152.45 34.15C151.92 34.15 151.43 34.055 150.98 33.865C150.54 33.665 150.155 33.395 149.825 33.055C149.495 32.715 149.235 32.32 149.045 31.87C148.865 31.41 148.775 30.92 148.775 30.4C148.775 29.34 149.125 28.455 149.825 27.745ZM152.45 27.91C151.75 27.91 151.185 28.14 150.755 28.6C150.335 29.06 150.125 29.66 150.125 30.4C150.125 31.14 150.335 31.74 150.755 32.2C151.185 32.66 151.75 32.89 152.45 32.89C153.16 32.89 153.725 32.66 154.145 32.2C154.565 31.73 154.775 31.13 154.775 30.4C154.775 29.67 154.565 29.075 154.145 28.615C153.725 28.145 153.16 27.91 152.45 27.91ZM167.091 26.8H168.546L166.731 29.935C167.961 30.265 168.576 31.26 168.576 32.92V34H167.256V32.905C167.256 32.235 167.056 31.72 166.656 31.36C166.266 30.99 165.706 30.805 164.976 30.805C164.746 30.805 164.511 30.82 164.271 30.85V34H162.951V23.5H164.271V29.665C164.691 29.605 165.111 29.605 165.531 29.665L167.091 26.8Z" fill="black"/>
</svg>

