<svg width="47" height="47" viewBox="0 0 47 47" fill="none" xmlns="http://www.w3.org/2000/svg">
<circle cx="23.5" cy="23.5" r="23" fill="white" fill-opacity="0.6" stroke="black"/>
<path d="M12.4175 31H10.6375V22.2C10.6375 20.76 11.0975 19.5333 12.0175 18.52C12.9508 17.5067 14.1508 17 15.6175 17H20.1975V31H18.3175V18.76H15.6175C14.6442 18.76 13.8642 19.0467 13.2775 19.62C12.7042 20.1933 12.4175 21.1067 12.4175 22.36V24.06C13.1642 23.2733 14.2308 22.88 15.6175 22.88H17.4375V24.64H15.6175C14.8442 24.64 14.2108 24.7333 13.7175 24.92C13.2375 25.1067 12.8042 25.4267 12.4175 25.88V31ZM33.5655 28.5V31H31.6455V28.5C31.6455 26.9933 31.3121 25.9333 30.6455 25.32C29.9921 24.6933 28.7388 24.3733 26.8855 24.36V31H25.0055V17H26.8855V22.7C27.8721 22.7267 28.4588 22.7533 28.6455 22.78L31.4655 17H33.5055L30.3455 23.22C32.4921 24.0067 33.5655 25.7667 33.5655 28.5Z" fill="black"/>
<circle cx="23.5" cy="23.5" r="23" fill="white" fill-opacity="0.6" stroke="black"/>
<path d="M12.4175 31H10.6375V22.2C10.6375 20.76 11.0975 19.5333 12.0175 18.52C12.9508 17.5067 14.1508 17 15.6175 17H20.1975V31H18.3175V18.76H15.6175C14.6442 18.76 13.8642 19.0467 13.2775 19.62C12.7042 20.1933 12.4175 21.1067 12.4175 22.36V24.06C13.1642 23.2733 14.2308 22.88 15.6175 22.88H17.4375V24.64H15.6175C14.8442 24.64 14.2108 24.7333 13.7175 24.92C13.2375 25.1067 12.8042 25.4267 12.4175 25.88V31ZM33.5655 28.5V31H31.6455V28.5C31.6455 26.9933 31.3121 25.9333 30.6455 25.32C29.9921 24.6933 28.7388 24.3733 26.8855 24.36V31H25.0055V17H26.8855V22.7C27.8721 22.7267 28.4588 22.7533 28.6455 22.78L31.4655 17H33.5055L30.3455 23.22C32.4921 24.0067 33.5655 25.7667 33.5655 28.5Z" fill="black"/>
</svg>
