<svg width="18" height="18" viewBox="0 0 18 18" fill="none" xmlns="http://www.w3.org/2000/svg">
<path d="M10.1258 11.5588L11.5558 10.1288L17.9958 16.5718L16.5688 17.9988L10.1258 11.5588ZM14.4188 5.82876L17.2788 2.96876C13.3288 -0.981239 6.92876 -0.991239 2.97876 2.94876C6.90876 1.64876 11.2888 2.69876 14.4188 5.82876ZM2.94876 2.97876C-0.991239 6.92876 -0.981239 13.3288 2.96876 17.2788L5.82876 14.4188C2.69876 11.2888 1.64876 6.90876 2.94876 2.97876ZM2.96876 2.95876L2.95876 2.96876C2.57876 5.97876 4.12876 9.84876 7.25876 12.9888L12.9888 7.25876C9.85876 4.12876 5.97876 2.57876 2.96876 2.95876Z" fill="black"/>
</svg>
