<svg width="40" height="40" viewBox="0 0 40 40" fill="none" xmlns="http://www.w3.org/2000/svg">
<path d="M20 10.0001V15.0001L26.6666 8.33341L20 1.66675V6.66675C12.6333 6.66675 6.66663 12.6334 6.66663 20.0001C6.66663 22.6167 7.43329 25.0501 8.73329 27.1001L11.1666 24.6667C10.4166 23.2834 9.99996 21.6834 9.99996 20.0001C9.99996 14.4834 14.4833 10.0001 20 10.0001ZM31.2666 12.9001L28.8333 15.3334C29.5666 16.7334 30 18.3167 30 20.0001C30 25.5167 25.5166 30.0001 20 30.0001V25.0001L13.3333 31.6667L20 38.3334V33.3334C27.3666 33.3334 33.3333 27.3667 33.3333 20.0001C33.3333 17.3834 32.5666 14.9501 31.2666 12.9001Z" fill="black"/>
</svg>
