<svg width="40" height="40" viewBox="0 0 40 40" fill="none" xmlns="http://www.w3.org/2000/svg">
<g clip-path="url(#clip0_119:177)">
<path d="M11.6666 39.9999H15V36.6666H11.6666V39.9999ZM18.3333 39.9999H21.6666V36.6666H18.3333V39.9999ZM21.6666 3.33325H18.3333V19.9999H21.6666V3.33325ZM27.6 7.39992L25.1833 9.81659C28.0666 11.5666 30 14.7166 30 18.3333C30 23.8499 25.5166 28.3333 20 28.3333C14.4833 28.3333 9.99996 23.8499 9.99996 18.3333C9.99996 14.7166 11.9333 11.5666 14.8 9.79992L12.4 7.39992C8.93329 9.79992 6.66663 13.7999 6.66663 18.3333C6.66663 25.6999 12.6333 31.6666 20 31.6666C27.3666 31.6666 33.3333 25.6999 33.3333 18.3333C33.3333 13.7999 31.0666 9.79992 27.6 7.39992ZM25 39.9999H28.3333V36.6666H25V39.9999Z" fill="black"/>
</g>
<defs>
<clipPath id="clip0_119:177">
<rect width="40" height="40" fill="white"/>
</clipPath>
</defs>
</svg>
