<svg width="31" height="31" viewBox="0 0 31 31" fill="none" xmlns="http://www.w3.org/2000/svg">
<g opacity="0.8">
<path d="M15.4871 3.29871C8.58713 3.29871 2.99963 8.89871 2.99963 15.7987C2.99963 22.6987 8.58713 28.2987 15.4871 28.2987C22.3996 28.2987 27.9996 22.6987 27.9996 15.7987C27.9996 8.89871 22.3996 3.29871 15.4871 3.29871ZM15.4996 25.7987C9.97463 25.7987 5.49963 21.3237 5.49963 15.7987C5.49963 10.2737 9.97463 5.79871 15.4996 5.79871C21.0246 5.79871 25.4996 10.2737 25.4996 15.7987C25.4996 21.3237 21.0246 25.7987 15.4996 25.7987Z" fill="black"/>
<path d="M16.1246 9.54871H14.2496V17.0487L20.8121 20.9862L21.7496 19.4487L16.1246 16.1112V9.54871Z" fill="black"/>
</g>
</svg>
